<svg xmlns="http://www.w3.org/2000/svg" viewBox="0 0 128 128" width="128" height="128" role="img" aria-labelledby="t3">
  <title id="t3">CRBasic LSP icon, datalogger chassis variant, gold accent</title>
  <defs>
    <linearGradient id="bgStationV2" x1="0" y1="0" x2="0" y2="1">
      <stop offset="0%" stop-color="#1B3240"/>
      <stop offset="100%" stop-color="#0A1620"/>
    </linearGradient>
  </defs>
  <rect x="1" y="1" width="126" height="126" rx="26" fill="url(#bgStationV2)"/>
  <rect x="1" y="1" width="126" height="126" rx="26" fill="none" stroke="#F8C806" stroke-opacity="0.18" stroke-width="1.5"/>

  <circle cx="28" cy="32" r="5.5" fill="#F8C806"/>
  <path d="M28 38 L28 46 L44 46" fill="none" stroke="#EAF6F3" stroke-width="3.5" stroke-linecap="round" stroke-linejoin="round"/>

  <rect x="40" y="46" width="58" height="46" rx="7" fill="#1F3947" stroke="#EAF6F3" stroke-opacity="0.55" stroke-width="2.5"/>

  <circle cx="90" cy="55" r="4" fill="#F8C806"/>

  <rect x="48" y="54" width="28" height="16" rx="2" fill="#0B1922"/>
  <path d="M50 64 L54 59 L58 66 L62 60 L66 64 L70 60"
        fill="none" stroke="#F8C806" stroke-width="2.2" stroke-linecap="round" stroke-linejoin="round"/>

  <rect x="47" y="90" width="6" height="10" rx="1.5" fill="#F8C806"/>
  <rect x="61" y="90" width="6" height="10" rx="1.5" fill="#F8C806"/>
  <rect x="75" y="90" width="6" height="10" rx="1.5" fill="#F8C806"/>
  <rect x="89" y="90" width="6" height="10" rx="1.5" fill="#F8C806"/>
</svg>
